<svg width="346" height="442" viewBox="0 0 346 442" fill="none" xmlns="http://www.w3.org/2000/svg">
<path d="M185.434 158.393C185.434 158.393 211.944 164.384 214.704 183.652C217.699 204.564 211.728 246.668 212.472 253.67C213.216 260.673 213.315 266.402 213.315 266.402L267.148 294.944L256.185 309.347C256.185 309.347 208.381 307.474 195.734 298.261C183.088 289.048 180.485 277.624 180.856 267.305C181.228 256.987 180.823 200.603 180.823 200.603L185.434 158.393Z" fill="#C17560"/>
<path d="M203.755 196.313C203.885 196.406 201.85 199.307 199.665 203.076C197.467 206.838 195.952 210.034 195.806 209.97C195.74 209.941 196.036 209.103 196.621 207.792C197.206 206.481 198.093 204.704 199.196 202.808C200.3 200.913 201.408 199.261 202.26 198.104C203.113 196.945 203.696 196.272 203.755 196.313Z" fill="#7C4236"/>
<path d="M345.587 291.7C345.587 303.719 338.426 313.461 329.595 313.461C325.964 313.461 316.446 313.422 316.446 313.422C312.6 309.448 313.603 298.778 313.603 291.7C313.603 285.152 311.579 274.055 314.942 270.067C314.942 270.067 325.574 269.939 329.595 269.939C338.426 269.939 345.587 279.681 345.587 291.7Z" fill="#FF735D"/>
<mask id="mask0_1212_202" style="mask-type:luminance" maskUnits="userSpaceOnUse" x="312" y="269" width="34" height="45">
<path d="M312.998 269.938H345.587V313.462H312.998V269.938Z" fill="white"/>
</mask>
<g mask="url(#mask0_1212_202)">
<g opacity="0.300003">
<path d="M345.587 291.7C345.587 303.719 338.426 313.461 329.595 313.461C325.964 313.461 316.446 313.422 316.446 313.422C312.6 309.448 313.603 298.778 313.603 291.7C313.603 285.152 311.579 274.055 314.942 270.066C314.942 270.066 325.574 269.939 329.595 269.939C338.426 269.939 345.587 279.681 345.587 291.7Z" fill="black"/>
</g>
</g>
<path d="M328.772 291.661C328.772 303.679 323.254 313.422 316.446 313.422C309.639 313.422 304.121 303.679 304.121 291.661C304.121 279.642 309.639 269.899 316.446 269.899C323.254 269.899 328.772 279.642 328.772 291.661Z" fill="#FF735D"/>
<path d="M323.702 299.188H278.955C277.005 299.188 275.423 297.622 275.423 295.69V291.393C275.423 289.461 277.005 287.895 278.955 287.895H323.702C325.652 287.895 327.233 289.461 327.233 291.393V295.69C327.233 297.622 325.652 299.188 323.702 299.188Z" fill="#FF735D"/>
<path d="M319.536 281.595C318.354 279.532 315.505 275.722 315.505 275.722C311.197 271.557 307.373 275.191 307.373 275.191C305.251 273.457 302.673 274.09 300.91 276.035C296.043 273.545 293.404 279.391 293.404 279.391C284.018 278.859 286.09 287.894 286.09 287.894C286.09 287.894 288.737 288.111 288.759 288.325C289.116 291.798 284.144 298.503 284.144 298.503L273.482 309.347L290.651 309.077C293.647 310.131 296.397 309.877 298.617 306.798C303.342 310.24 305.567 305.971 305.567 305.971C310.015 308.932 312.622 304.457 312.622 304.457C312.622 304.457 317.097 306.581 318.491 298.117C318.999 295.028 320.719 283.658 319.536 281.595Z" fill="#C17560"/>
<path d="M295.597 297.86C295.522 297.826 296.014 296.696 296.704 294.836C297.391 292.977 298.253 290.371 298.913 287.43C299.072 286.7 299.176 285.986 299.108 285.316C299.025 284.643 298.834 284.002 298.531 283.455C297.922 282.353 296.975 281.614 296.16 281.073C294.495 280.008 293.357 279.477 293.404 279.391C293.421 279.358 293.715 279.46 294.233 279.681C294.748 279.904 295.493 280.234 296.367 280.754C297.227 281.269 298.265 282.01 298.967 283.215C299.315 283.816 299.538 284.516 299.636 285.262C299.72 286.02 299.605 286.792 299.442 287.542C298.774 290.526 297.845 293.137 297.061 294.975C296.274 296.814 295.658 297.889 295.597 297.86Z" fill="#7C4236"/>
<path d="M304.834 295.673C304.749 295.643 305.19 294.461 305.631 292.494C305.851 291.449 306.096 290.278 306.362 289.006C306.649 287.699 307.028 286.266 307.06 284.765C307.087 283.278 306.492 281.905 305.734 280.853C304.971 279.786 304.066 278.977 303.318 278.295C301.784 276.962 300.854 276.094 300.91 276.034C300.957 275.987 301.96 276.739 303.568 278.007C304.354 278.661 305.308 279.453 306.139 280.564C306.964 281.662 307.63 283.135 307.602 284.771C307.566 286.374 307.16 287.818 306.848 289.118C306.529 290.416 306.274 291.6 306.004 292.585C305.735 293.571 305.451 294.351 305.234 294.877C305.015 295.405 304.867 295.685 304.834 295.673Z" fill="#7C4236"/>
<path d="M312.648 293.734C312.576 293.712 312.876 292.501 313.419 290.562C313.71 289.544 314.035 288.403 314.388 287.166C314.726 285.902 315.03 284.462 314.721 283.016C314.418 281.569 313.615 280.331 312.743 279.371C311.865 278.405 310.897 277.693 310.07 277.13C308.392 276.023 307.286 275.413 307.332 275.336C307.35 275.304 307.642 275.421 308.156 275.666C308.668 275.914 309.404 276.282 310.279 276.811C311.147 277.345 312.166 278.04 313.112 279.036C314.044 280.024 314.919 281.33 315.252 282.907C315.589 284.497 315.237 286.022 314.869 287.298C314.482 288.584 314.101 289.713 313.785 290.672C313.149 292.584 312.719 293.755 312.648 293.734Z" fill="#7C4236"/>
<path d="M213.47 266.449C213.558 266.604 210.1 268.145 206.798 271.307C203.463 274.436 201.755 277.789 201.602 277.695C201.546 277.667 201.895 276.796 202.684 275.503C203.47 274.211 204.739 272.52 206.424 270.92C208.113 269.323 209.874 268.142 211.212 267.423C212.551 266.698 213.444 266.391 213.47 266.449Z" fill="#7C4236"/>
<path d="M285.326 293.318C285.326 305.337 278.165 315.079 269.334 315.079C265.703 315.079 256.186 315.04 256.186 315.04C252.339 311.066 253.341 300.397 253.341 293.318C253.341 286.77 251.318 275.673 254.681 271.684C254.681 271.684 265.313 271.556 269.334 271.556C278.165 271.556 285.326 281.299 285.326 293.318Z" fill="#FF735D"/>
<mask id="mask1_1212_202" style="mask-type:luminance" maskUnits="userSpaceOnUse" x="252" y="271" width="34" height="45">
<path d="M252.738 271.556H285.325V315.079H252.738V271.556Z" fill="white"/>
</mask>
<g mask="url(#mask1_1212_202)">
<g opacity="0.300003">
<path d="M285.326 293.318C285.326 305.336 278.165 315.079 269.334 315.079C265.703 315.079 256.186 315.04 256.186 315.04C252.339 311.066 253.341 300.397 253.341 293.318C253.341 286.769 251.318 275.673 254.681 271.684C254.681 271.684 265.313 271.556 269.334 271.556C278.165 271.556 285.326 281.299 285.326 293.318Z" fill="black"/>
</g>
</g>
<path d="M268.511 293.278C268.511 305.297 262.993 315.04 256.186 315.04C249.378 315.04 243.86 305.297 243.86 293.278C243.86 281.26 249.378 271.517 256.186 271.517C262.993 271.517 268.511 281.26 268.511 293.278Z" fill="#FF735D"/>
<path d="M266.708 293.278C266.699 293.278 266.687 293.195 266.674 293.031C266.66 292.836 266.646 292.598 266.626 292.308C266.609 291.671 266.524 290.735 266.396 289.535C266.305 288.934 266.204 288.271 266.093 287.549C265.923 286.835 265.81 286.043 265.558 285.223C265.127 283.568 264.479 281.712 263.437 279.831C262.894 278.905 262.289 277.95 261.494 277.093C260.736 276.207 259.766 275.44 258.65 274.9C257.535 274.363 256.219 274.129 254.92 274.373C253.618 274.616 252.399 275.33 251.368 276.275C249.282 278.18 247.881 280.922 246.946 283.847C246.011 286.792 245.586 290.001 245.558 293.276C245.586 296.553 246.01 299.763 246.946 302.708C247.881 305.634 249.282 308.376 251.368 310.282C252.399 311.227 253.619 311.941 254.92 312.183C256.22 312.428 257.536 312.194 258.651 311.657C259.766 311.117 260.737 310.35 261.495 309.463C262.289 308.606 262.895 307.651 263.437 306.725C264.48 304.844 265.127 302.988 265.558 301.333C265.81 300.514 265.923 299.722 266.093 299.008C266.204 298.285 266.305 297.623 266.396 297.022C266.524 295.82 266.609 294.886 266.626 294.249C266.646 293.957 266.66 293.721 266.674 293.526C266.687 293.362 266.699 293.278 266.708 293.278C266.717 293.278 266.725 293.362 266.729 293.526C266.731 293.722 266.733 293.96 266.735 294.252C266.754 294.892 266.703 295.833 266.606 297.045C266.542 297.647 266.445 298.317 266.348 299.051C266.191 299.773 266.091 300.576 265.851 301.408C265.444 303.087 264.815 304.976 263.773 306.908C263.23 307.859 262.621 308.843 261.808 309.738C261.033 310.659 260.028 311.476 258.845 312.058C257.664 312.639 256.238 312.905 254.831 312.647C253.422 312.393 252.118 311.633 251.032 310.649C248.837 308.657 247.403 305.848 246.44 302.865C245.479 299.863 245.044 296.604 245.016 293.276C245.045 289.95 245.48 286.691 246.441 283.689C247.404 280.707 248.838 277.898 251.032 275.908C252.117 274.924 253.421 274.164 254.831 273.91C256.237 273.652 257.663 273.918 258.845 274.499C260.027 275.081 261.032 275.896 261.807 276.819C262.62 277.713 263.23 278.697 263.773 279.648C264.815 281.58 265.443 283.469 265.851 285.148C266.091 285.98 266.191 286.783 266.348 287.505C266.445 288.239 266.541 288.908 266.606 289.512C266.703 290.724 266.754 291.665 266.735 292.305C266.733 292.597 266.731 292.835 266.729 293.031C266.725 293.195 266.717 293.278 266.708 293.278Z" fill="#1A2E35"/>
<path d="M255.823 295.511L255.08 295.564L255.177 296.884L254.149 296.957L254.053 295.637L251.6 295.811L251.53 294.831L253.387 290.688L254.494 290.61L252.776 294.535L253.998 294.448L253.914 293.27L254.91 293.2L254.995 294.377L255.736 294.325L255.823 295.511Z" fill="#1A2E35"/>
<path d="M257.812 294.791L257.372 295.491L257.462 296.722L256.448 296.793L255.965 290.126L256.979 290.054L257.253 293.828L258.596 291.782L259.805 291.695L258.497 293.849L260.286 296.521L259.056 296.608L257.812 294.791Z" fill="#1A2E35"/>
<path d="M145.474 27.9796C150.528 24.0579 150.851 16.0557 147.406 10.6893C143.96 5.32288 137.717 2.29552 131.454 0.901375C121.762 -1.25528 110.654 0.30167 103.642 7.27346C96.6317 14.2452 95.7644 27.247 103.446 33.4872C99.0144 33.8303 94.3354 34.259 90.7277 36.8319C87.1209 39.4049 85.2645 44.9207 88.0965 48.3138C91.3236 52.18 97.523 50.7302 102.254 48.9434C99.1433 50.893 98.6577 55.5999 100.695 58.6376C102.733 61.6742 106.615 63.1055 110.295 63.0622C113.976 63.0199 117.515 61.7134 120.89 60.2594" fill="#1A2E35"/>
<path d="M130.005 29.4759C131.832 27.3069 133.704 25.1069 136.112 23.5912C138.518 22.0765 141.586 21.3263 144.263 22.299C145.524 22.7565 146.725 23.7066 146.956 25.0162C147.187 26.3259 145.976 27.8272 144.674 27.5037L144.354 27.6963C140.985 29.7912 137.575 31.819 134.126 33.7799C133.258 34.2735 132.36 34.7732 131.366 34.9051C130.374 35.037 129.254 34.7176 128.72 33.8778C127.839 32.4898 128.944 30.735 130.005 29.4759Z" fill="#FF735D"/>
<path d="M122.868 38.1138C134.623 27.8705 148.895 23.2017 164.381 25.4758C173.117 26.7597 176.425 29.1441 182.419 31.8479C188.415 34.5517 193.52 38.8145 196.385 44.691C199.789 51.671 202.356 59.2837 201.93 67.0242C201.49 74.9749 201.045 82.9781 199.143 90.7155C197.242 98.4518 193.779 105.99 188.062 111.588L167.366 111.758C156.192 110.314 137.085 121.246 126.678 116.962C116.272 112.68 109.514 93.4667 108.106 81.9302C106.227 66.5316 111.113 48.3572 122.868 38.1138Z" fill="#1A2E35"/>
<path d="M161.545 147.154C162.577 140.137 163.801 131.329 163.796 131.362C163.796 131.362 180.5 132.256 188.506 112.166C192.487 102.176 195.769 85.0789 197.998 71.0055C200.004 58.3366 192.002 39.3295 176.246 36.6938L169.374 34.7401L140.792 40.9133C136.885 40.4733 133.288 43.0679 132.512 46.8876L116.224 141.139L128.668 169.582L159.479 157.757L161.545 147.154Z" fill="#C17560"/>
<path d="M157.78 102.129C158.109 101.055 158.887 100.184 159.785 99.6465C161.579 98.5697 163.896 98.816 165.385 100.241C166.875 101.666 167.445 104.181 166.763 106.32C165.605 107.452 164.016 108.084 162.395 107.959C162.142 107.939 161.892 107.907 161.642 107.86C160.436 107.631 159.27 107.023 158.492 105.987C157.714 104.95 157.375 103.454 157.78 102.129Z" fill="#7C4236"/>
<path d="M188.834 86.6271C188.568 88.0491 187.134 88.9981 185.631 88.7498C184.13 88.5025 183.126 87.1526 183.392 85.7307C183.657 84.3097 185.092 83.3587 186.592 83.606C188.096 83.8533 189.1 85.2062 188.834 86.6271Z" fill="#1A2E35"/>
<path d="M192.02 77.2452C191.609 77.5203 189.902 75.5738 186.999 74.9422C184.109 74.2714 181.648 75.2812 181.413 74.8598C181.293 74.6702 181.775 74.1168 182.851 73.6521C183.913 73.1874 185.615 72.8824 187.419 73.2863C189.224 73.6944 190.597 74.6887 191.319 75.5543C192.059 76.4291 192.22 77.1256 192.02 77.2452Z" fill="#1A2E35"/>
<path d="M169.416 96.9118C169.439 96.7459 171.311 96.8335 174.316 97.1066C175.074 97.1931 175.808 97.2014 176.045 96.7284C176.338 96.2369 176.206 95.3775 176.038 94.445C175.739 92.5161 175.428 90.4934 175.1 88.3748C173.842 79.7492 173.106 72.7218 173.457 72.6754C173.808 72.628 175.113 79.5813 176.372 88.2069C176.664 90.3295 176.945 92.3543 177.21 94.2894C177.304 95.1859 177.573 96.2379 176.948 97.2549C176.626 97.7598 175.993 98.037 175.49 98.0597C174.982 98.0989 174.564 98.0154 174.193 97.9567C171.218 97.4662 169.39 97.0777 169.416 96.9118Z" fill="#1A2E35"/>
<path d="M163.796 131.361C163.796 131.361 149.453 129.153 137.314 117.728C137.314 117.728 141.577 133.813 163.051 136.493L163.796 131.361Z" fill="#7C4236"/>
<path d="M160.434 97.0215C160.912 97.0978 160.219 100.219 162.418 103.026C164.609 105.84 168.044 106.227 167.971 106.669C167.971 106.874 167.088 107.11 165.663 106.837C164.263 106.579 162.332 105.689 160.988 103.973C159.647 102.253 159.346 100.286 159.526 98.9824C159.699 97.6522 160.223 96.9556 160.434 97.0215Z" fill="#1A2E35"/>
<path d="M192.717 71.3988C192.072 71.9933 189.956 71.035 187.313 70.6775C184.682 70.2365 182.368 70.5239 181.939 69.7666C181.754 69.4018 182.191 68.7805 183.249 68.2725C184.293 67.7655 185.97 67.4512 187.784 67.7243C189.596 68.0005 191.098 68.7949 191.933 69.5873C192.783 70.3848 193.005 71.1051 192.717 71.3988Z" fill="#1A2E35"/>
<path d="M155.917 80.2981C155.604 81.7108 156.552 83.1369 158.035 83.4883C159.514 83.8397 160.97 82.9824 161.283 81.5707C161.596 80.159 160.647 78.7298 159.169 78.3795C157.686 78.0281 156.23 78.8865 155.917 80.2981Z" fill="#1A2E35"/>
<path d="M152.593 69.6389C152.864 70.051 155.201 68.9165 158.122 69.4534C161.049 69.949 162.918 71.8285 163.301 71.5307C163.486 71.4029 163.259 70.7064 162.451 69.8635C161.655 69.0258 160.208 68.0891 158.385 67.7656C156.562 67.4461 154.909 67.8325 153.903 68.3519C152.878 68.8722 152.455 69.4513 152.593 69.6389Z" fill="#1A2E35"/>
<path d="M155.902 60.6345C156.357 61.3959 158.738 61.1239 161.455 61.5835C164.186 61.9586 166.381 62.9333 167.036 62.3419C167.33 62.0492 167.089 61.3248 166.201 60.5201C165.328 59.7205 163.768 58.9137 161.896 58.6252C160.023 58.3397 158.298 58.6416 157.231 59.1455C156.148 59.6473 155.708 60.2676 155.902 60.6345Z" fill="#1A2E35"/>
<path d="M130.267 82.7986C130.611 81.2468 129.621 77.1922 128.128 76.6131C124.144 75.0674 116.63 73.7588 114.232 84.1299C110.955 98.3074 125.997 98.6433 126.117 98.2425C126.209 97.9292 129.079 88.1568 130.267 82.7986Z" fill="#C17560"/>
<path d="M123.366 92.1675C123.314 92.1077 123.077 92.2839 122.612 92.3798C122.158 92.4725 121.42 92.4416 120.739 91.9944C119.354 91.1021 118.631 88.4353 119.153 85.8645C119.414 84.5651 119.971 83.3987 120.667 82.4857C121.344 81.547 122.189 80.9762 122.981 81.0164C123.778 81.0143 124.213 81.5882 124.296 82.0262C124.397 82.4661 124.24 82.7289 124.31 82.7701C124.342 82.8144 124.671 82.6022 124.692 81.9911C124.698 81.6954 124.608 81.3234 124.333 80.9741C124.055 80.6196 123.582 80.3641 123.039 80.3002C121.917 80.1261 120.692 80.9061 119.927 81.9077C119.1 82.901 118.444 84.2055 118.15 85.6635C117.581 88.5415 118.439 91.5493 120.371 92.6116C121.316 93.1 122.226 92.9898 122.737 92.7538C123.261 92.5044 123.41 92.2046 123.366 92.1675Z" fill="#7C4236"/>
<path d="M127.532 76.5577L130.576 80.9339C148.946 68.4875 186.223 35.8985 184.119 37.8594C184.119 37.8594 173.991 31.6522 161.865 31.713C149.739 31.7728 126.393 33.9603 124.439 47.7978C122.484 61.6362 127.532 76.5577 127.532 76.5577Z" fill="#1A2E35"/>
<path d="M107.053 69.9567C107.03 69.9454 107.154 69.6733 107.413 69.1643C107.675 68.6574 108.114 67.933 108.776 67.0674C110.095 65.3466 112.444 63.1086 115.94 61.3208C119.4 59.463 123.974 58.2337 129.071 57.5145C134.166 56.7447 139.82 56.4263 145.55 55.026C151.302 53.7163 156.575 51.6772 161.155 49.437C165.727 47.166 169.605 44.6683 172.692 42.356C175.78 40.0407 178.094 37.9355 179.664 36.4559C180.39 35.7469 180.98 35.172 181.443 34.7186C181.854 34.3239 182.079 34.124 182.098 34.1416C182.117 34.1591 181.93 34.392 181.554 34.8206C181.173 35.2431 180.628 35.885 179.871 36.6599C178.358 38.2096 176.084 40.3859 173.015 42.7723C169.947 45.1557 166.065 47.7224 161.465 50.0501C156.859 52.3449 151.536 54.4263 145.722 55.7494C139.917 57.1662 134.227 57.465 129.17 58.1925C124.101 58.8715 119.609 60.0266 116.181 61.7886C112.721 63.4836 110.372 65.6104 109.003 67.2478C107.638 68.9047 107.124 69.9969 107.053 69.9567Z" fill="#375A64"/>
<path d="M110.885 72.9004C110.885 72.9004 110.935 71.703 111.968 69.8617C112.966 68.0296 115.117 65.671 118.525 64.0069C121.915 62.2675 126.455 61.5926 131.369 61.2969C136.298 61.0352 141.68 60.5498 147.146 59.0372C152.599 57.541 157.616 55.4688 161.873 53.0505C166.149 50.6578 169.713 48.0313 172.523 45.6274C175.361 43.244 177.369 41.0111 178.792 39.5067C179.425 38.7741 179.941 38.1764 180.351 37.7014C180.715 37.2934 180.915 37.0863 180.936 37.1017C180.957 37.1172 180.796 37.3552 180.47 37.7941C180.088 38.2939 179.605 38.9225 179.014 39.6953C177.653 41.2636 175.691 43.5676 172.874 46.022C170.085 48.4971 166.518 51.1957 162.215 53.646C157.93 56.1232 152.863 58.2417 147.342 59.7554C141.822 61.2866 136.323 61.7585 131.414 61.98C126.513 62.2387 122.076 62.8518 118.757 64.4798C115.412 66.0399 113.27 68.2676 112.22 70.008C111.136 71.7556 110.981 72.9333 110.885 72.9004Z" fill="#375A64"/>
<path d="M70.9178 203.344C71.4982 204.457 71.4982 218.184 74.12 233.586C76.7418 248.988 90.0736 280.427 90.0736 280.427L87.3186 301.768L203.134 314.873L189.197 277.928L190.726 243.133C190.726 243.133 199.589 233.402 195.844 207.426C192.099 181.45 186.677 159.148 186.677 159.148L177.365 155.212L165.469 150.842L121.027 137.055L96.6953 134.2L73.3712 181.822L70.9178 203.344Z" fill="#C17560"/>
<path d="M78.3066 250.126C78.3066 250.126 86.8325 244.15 107.322 243.709C127.811 243.267 188.172 253.329 188.172 253.329L190.327 245.463C190.327 245.463 204.94 223.417 194.295 197.992C182.945 170.883 186.826 158.537 186.826 158.537L177.366 155.211C177.366 155.211 167.883 173.721 159.801 178.206C150.683 183.266 133.908 183.029 119.125 163.832C108.725 150.328 108.549 135.156 108.549 135.156L97.427 134.201C97.427 134.201 94.8499 162.729 89.2817 175.969C83.7146 189.207 69.6371 216.901 69.6371 216.901C69.6371 216.901 75.5714 246.394 78.3066 250.126Z" fill="#69B99D"/>
<path d="M86.105 301.81C85.3562 303.666 73.3713 335.579 71.8726 361.554C70.374 387.53 69.9996 420 75.6177 441.245H141.91C141.91 441.245 147.434 394.289 149.307 392.063C151.18 389.836 153.052 389.133 153.802 397.649C154.551 406.163 152.398 441.245 152.398 441.245H216.833C216.833 441.245 218.69 382.853 217.192 368.492C216.243 359.396 213.19 344.445 211.079 334.709C209.759 328.621 207.949 322.652 205.657 316.855L198.146 297.86L86.105 301.81Z" fill="#1A2E35"/>
<path d="M203.134 310.475C203.134 310.485 203.028 310.495 202.82 310.505C202.583 310.513 202.279 310.525 201.899 310.539C201.051 310.558 199.866 310.584 198.356 310.617C195.28 310.657 190.83 310.781 185.334 310.973C174.34 311.347 159.17 312.267 142.423 313.427C125.67 314.589 110.485 315.449 99.4806 315.727C93.979 315.87 89.5257 315.937 86.4483 315.913C84.9393 315.903 83.7527 315.895 82.9051 315.889C82.5244 315.882 82.2207 315.875 81.9836 315.87C81.7756 315.862 81.6695 315.854 81.6695 315.845C81.6695 315.836 81.7756 315.825 81.9836 315.815C82.2207 315.807 82.5244 315.795 82.904 315.781C83.7516 315.763 84.9383 315.737 86.4463 315.704C89.5215 315.663 93.9717 315.539 99.4681 315.348C110.463 314.973 125.633 314.054 142.386 312.893C159.134 311.731 174.317 310.871 185.321 310.594C190.823 310.451 195.277 310.384 198.354 310.407C199.864 310.418 201.051 310.425 201.899 310.431C202.279 310.439 202.583 310.445 202.82 310.451C203.028 310.458 203.134 310.466 203.134 310.475Z" fill="#375A64"/>
<path d="M93.0564 315.845C93.0657 315.847 93.0491 315.957 93.0096 316.17C92.9617 316.41 92.8993 316.72 92.8213 317.109C92.6362 317.969 92.3762 319.175 92.0455 320.712C91.694 322.273 91.2769 324.184 90.8568 326.417C90.4293 328.648 89.8833 331.178 89.4289 334.001C89.1855 335.411 88.9317 336.886 88.6665 338.422C88.4045 339.961 88.1954 341.571 87.9437 343.232C87.4165 346.552 87.0171 350.122 86.5605 353.872C85.7556 361.386 85.1056 369.672 84.8341 378.388C84.6043 387.107 84.7801 395.419 85.1742 402.965C85.4301 406.735 85.6329 410.321 85.9937 413.662C86.1612 415.335 86.2849 416.953 86.4711 418.502C86.6614 420.05 86.8445 421.536 87.0192 422.955C87.3333 425.796 87.7711 428.346 88.0987 430.593C88.4149 432.843 88.7529 434.769 89.043 436.343C89.3113 437.89 89.5225 439.106 89.6722 439.972C89.7346 440.364 89.7835 440.677 89.822 440.919C89.8532 441.132 89.8646 441.242 89.8553 441.244C89.8459 441.246 89.8168 441.139 89.7679 440.929C89.7159 440.69 89.6493 440.381 89.5651 439.992C89.3914 439.131 89.147 437.921 88.835 436.38C88.5137 434.812 88.1445 432.889 87.7992 430.64C87.4435 428.395 86.9786 425.846 86.6396 423.004C86.4534 421.584 86.2589 420.097 86.0561 418.549C85.8575 416.999 85.7244 415.379 85.5465 413.705C85.1659 410.36 84.9454 406.769 84.6761 402.993C84.2538 395.435 84.0625 387.109 84.2923 378.373C84.5637 369.641 85.2304 361.34 86.0645 353.818C86.5356 350.062 86.9526 346.49 87.4997 343.168C87.7617 341.504 87.9801 339.894 88.2547 338.355C88.5313 336.819 88.7976 335.344 89.0524 333.934C89.5308 331.112 90.1038 328.584 90.5604 326.357C91.0086 324.128 91.4558 322.22 91.8396 320.666C92.2129 319.138 92.5062 317.939 92.7153 317.085C92.8151 316.7 92.8941 316.394 92.9565 316.157C93.0137 315.948 93.047 315.843 93.0564 315.845Z" fill="white"/>
<path d="M87.3184 316.494C87.3277 316.496 87.3121 316.606 87.2726 316.817C87.2248 317.057 87.1634 317.365 87.0865 317.753C86.9034 318.608 86.6455 319.808 86.3179 321.336C85.9695 322.889 85.5545 324.791 85.1448 327.014C84.7277 329.234 84.1859 331.751 83.7481 334.562C83.513 335.964 83.2655 337.433 83.0086 338.963C82.7517 340.494 82.5573 342.097 82.3149 343.751C81.8085 347.056 81.4341 350.609 81.0077 354.344C80.2609 361.822 79.6879 370.07 79.5007 378.742C79.3561 387.418 79.613 395.683 80.0727 403.186C80.3566 406.934 80.5937 410.499 80.9733 413.821C81.1522 415.483 81.2853 417.093 81.484 418.631C81.6826 420.17 81.8719 421.647 82.0539 423.058C82.3836 425.883 82.8287 428.418 83.1615 430.652C83.486 432.889 83.8271 434.805 84.1162 436.369C84.3845 437.909 84.5957 439.118 84.7465 439.978C84.8089 440.369 84.8588 440.679 84.8973 440.92C84.9274 441.133 84.9389 441.243 84.9295 441.245C84.9212 441.247 84.891 441.141 84.8421 440.931C84.7901 440.692 84.7236 440.385 84.6393 440C84.4646 439.143 84.2202 437.939 83.9082 436.407C83.5879 434.847 83.2156 432.935 82.863 430.7C82.5011 428.469 82.0289 425.935 81.6743 423.109C81.4819 421.698 81.2791 420.22 81.069 418.681C80.8589 417.141 80.7154 415.531 80.5272 413.867C80.1268 410.541 79.872 406.972 79.5745 403.218C79.0868 395.704 78.8143 387.424 78.9589 378.731C79.1471 370.044 79.7368 361.781 80.5116 354.292C80.9525 350.553 81.3436 346.996 81.8698 343.688C82.1225 342.033 82.3274 340.429 82.5968 338.898C82.8651 337.368 83.1241 335.899 83.3705 334.496C83.8333 331.686 84.4022 329.172 84.8484 326.954C85.2873 324.735 85.7324 322.838 86.112 321.291C86.4822 319.771 86.7734 318.578 86.9804 317.728C87.0792 317.346 87.1582 317.041 87.2185 316.805C87.2757 316.597 87.309 316.492 87.3184 316.494Z" fill="white"/>
<path d="M198.179 299.188C198.144 299.202 197.864 298.625 197.382 297.567C196.877 296.425 196.203 294.906 195.386 293.06C193.719 289.24 191.446 283.938 188.948 278.032L188.929 277.987L188.927 277.939C188.916 277.69 188.905 277.424 188.894 277.155C188.62 270.577 188.402 264.623 188.272 260.311C188.22 258.221 188.177 256.497 188.145 255.205C188.142 254.653 188.14 254.196 188.137 253.815C188.142 253.497 188.153 253.329 188.172 253.329C188.191 253.328 188.215 253.494 188.247 253.811C188.277 254.19 188.312 254.647 188.355 255.196C188.431 256.487 188.532 258.207 188.654 260.296C188.882 264.603 189.161 270.556 189.435 277.132C189.446 277.401 189.457 277.669 189.468 277.917L189.447 277.824C191.94 283.733 194.157 289.059 195.734 292.916C196.487 294.788 197.106 296.331 197.572 297.488C197.996 298.57 198.213 299.174 198.179 299.188Z" fill="#7C4236"/>
<path d="M186.198 203.998C186.169 204.144 181.796 203.413 176.431 202.366C171.064 201.319 166.739 200.353 166.768 200.207C166.797 200.061 171.169 200.793 176.535 201.84C181.901 202.887 186.227 203.853 186.198 203.998Z" fill="white"/>
<path d="M39.4753 388.425C39.4753 399.224 30.6384 407.981 19.7382 407.981C8.83688 407.981 0 399.224 0 388.425C0 377.624 8.83688 368.868 19.7382 368.868C30.6384 368.868 39.4753 377.624 39.4753 388.425Z" fill="#FF735D"/>
<mask id="mask2_1212_202" style="mask-type:luminance" maskUnits="userSpaceOnUse" x="0" y="368" width="40" height="40">
<path d="M0 368.869H39.4754V407.98H0V368.869Z" fill="white"/>
</mask>
<g mask="url(#mask2_1212_202)">
<g opacity="0.300003">
<path d="M39.4753 388.425C39.4753 399.224 30.6384 407.981 19.7382 407.981C8.83689 407.981 7.62939e-06 399.224 7.62939e-06 388.425C7.62939e-06 377.624 8.83689 368.868 19.7382 368.868C30.6384 368.868 39.4753 377.624 39.4753 388.425Z" fill="black"/>
</g>
</g>
<path d="M45.7617 388.425C45.7617 399.224 36.9248 407.981 26.0245 407.981C15.1233 407.981 6.28637 399.224 6.28637 388.425C6.28637 377.624 15.1233 368.868 26.0245 368.868C36.9248 368.868 45.7617 377.624 45.7617 388.425Z" fill="#FF735D"/>
<path d="M14.968 352.065C14.968 352.8 14.9493 365.573 12.7257 372.734C10.5012 379.895 9.38942 387.24 10.3161 389.994C11.2427 392.749 21.6209 402.848 24.0305 403.766C26.4402 404.684 47.5678 402.848 47.5678 402.848L54.7948 378.426C54.7948 378.426 46.455 366.674 42.9346 360.431C39.4132 354.188 36.2297 346.92 36.6166 342.566C37.0035 338.213 14.968 352.065 14.968 352.065Z" fill="#C17560"/>
<path d="M62.9773 390.296C62.9773 401.097 54.1404 409.852 43.2391 409.852C32.3389 409.852 23.502 401.097 23.502 390.296C23.502 379.496 32.3389 370.74 43.2391 370.74C54.1404 370.74 62.9773 379.496 62.9773 390.296Z" fill="#FF735D"/>
<path d="M86.4786 134.438C80.639 135.179 74.9866 137.103 70.0518 140.284C62.0105 145.468 52.2928 155.424 48.815 174.07C42.4918 207.974 39.144 237.824 35.425 245.563C31.706 253.302 23.8945 268.043 23.1509 283.521C22.4073 298.999 14.9682 352.065 14.9682 352.065H34.3091C34.3091 352.065 52.1628 297.155 58.8573 279.467C65.5528 261.778 63.8118 261.344 68.2745 244.761C72.7381 228.177 82.0295 196.284 82.0295 196.284L93.1793 162.603L96.6956 134.201L86.4786 134.438Z" fill="#C17560"/>
<path d="M83.0419 163.364C83.1075 163.34 83.5526 164.292 84.1443 165.883C84.7319 167.474 85.4495 169.716 85.9779 172.257C86.5031 174.8 86.736 177.141 86.8275 178.833C86.917 180.527 86.8858 181.576 86.8161 181.579C86.736 181.582 86.632 180.541 86.4459 178.865C86.2566 177.19 85.9664 174.88 85.4475 172.365C84.9254 169.853 84.2733 167.617 83.7814 166.003C83.2853 164.39 82.9671 163.392 83.0419 163.364Z" fill="#7C4236"/>
<mask id="mask3_1212_202" style="mask-type:luminance" maskUnits="userSpaceOnUse" x="23" y="370" width="40" height="40">
<path d="M23.502 370.74H62.9773V409.851H23.502V370.74Z" fill="white"/>
</mask>
<g mask="url(#mask3_1212_202)">
<g opacity="0.300003">
<path d="M62.9773 390.296C62.9773 401.097 54.1404 409.852 43.2391 409.852C32.3389 409.852 23.502 401.097 23.502 390.296C23.502 379.496 32.3389 370.74 43.2391 370.74C54.1404 370.74 62.9773 379.496 62.9773 390.296Z" fill="black"/>
</g>
</g>
<path d="M69.9232 390.296C69.9232 401.097 61.0863 409.852 50.185 409.852C39.2848 409.852 30.4479 401.097 30.4479 390.296C30.4479 379.496 39.2848 370.74 50.185 370.74C61.0863 370.74 69.9232 379.496 69.9232 390.296Z" fill="#FF735D"/>
<path d="M50.8569 392.317L49.9438 392.381L50.0499 393.836L48.7832 393.925L48.6781 392.471L45.658 392.686L45.581 391.607L47.9054 387.025L49.2668 386.928L47.1181 391.268L48.624 391.162L48.5304 389.866L49.7556 389.778L49.8492 391.074L50.7623 391.009L50.8569 392.317Z" fill="#1A2E35"/>
<path d="M53.3071 391.506L52.76 392.281L52.8578 393.636L51.6088 393.724L51.0773 386.382L52.3264 386.293L52.6269 390.45L54.2992 388.183L55.7885 388.078L54.1578 390.46L56.3345 393.388L54.8203 393.497L53.3071 391.506Z" fill="#1A2E35"/>
<path d="M66.7164 390.296C66.6269 390.304 66.7372 388.835 66.0965 386.323C65.7981 385.064 65.1938 383.58 64.2495 382.009C63.2979 380.444 61.9293 378.812 60.0708 377.428C58.2185 376.058 55.8858 374.893 53.1953 374.426C50.5225 373.976 47.5086 374.062 44.6393 375.146C43.1957 375.643 41.8032 376.395 40.524 377.344C39.8625 377.795 39.2853 378.358 38.6801 378.9C38.133 379.501 37.5579 380.088 37.0868 380.771C35.0858 383.408 33.9585 386.8 33.9252 390.294C33.9574 393.789 35.0848 397.181 37.0857 399.82C37.5569 400.501 38.132 401.089 38.679 401.69C39.2843 402.232 39.8615 402.796 40.5229 403.246C41.8021 404.196 43.1957 404.948 44.6393 405.446C47.5086 406.53 50.5236 406.615 53.1964 406.165C55.8869 405.697 58.2196 404.534 60.0718 403.163C61.9303 401.78 63.2979 400.147 64.2505 398.582C65.1938 397.011 65.7981 395.526 66.0976 394.269C66.7361 391.757 66.6269 390.288 66.7164 390.296C66.7257 390.296 66.7309 390.385 66.7309 390.562C66.7268 390.769 66.7226 391.026 66.7174 391.343C66.7174 391.688 66.6987 392.112 66.6145 392.61C66.5469 393.109 66.4824 393.688 66.3014 394.32C66.03 395.601 65.4476 397.12 64.5105 398.736C63.5662 400.344 62.1903 402.029 60.3048 403.464C58.4245 404.887 56.0397 406.102 53.2785 406.602C50.5361 407.085 47.4327 407.014 44.4697 405.911C42.9784 405.404 41.539 404.633 40.2151 403.658C39.5318 403.195 38.9328 402.616 38.3077 402.057C37.7409 401.44 37.1471 400.834 36.6583 400.131C34.5866 397.411 33.4145 393.904 33.3844 390.294C33.4156 386.684 34.5877 383.178 36.6593 380.458C37.1481 379.757 37.742 379.151 38.3088 378.534C38.9338 377.975 39.5329 377.396 40.2161 376.933C41.539 375.958 42.9784 375.188 44.4697 374.681C47.4327 373.578 50.535 373.506 53.2775 373.988C56.0387 374.489 58.4234 375.704 60.3037 377.126C62.1893 378.561 63.5652 380.247 64.5095 381.856C65.4465 383.47 66.03 384.99 66.3014 386.271C66.4824 386.903 66.5469 387.483 66.6145 387.981C66.6987 388.478 66.7174 388.904 66.7174 389.249C66.7226 389.565 66.7268 389.823 66.7309 390.03C66.7309 390.206 66.7257 390.296 66.7164 390.296Z" fill="#1A2E35"/>
</svg>
